<svg version="1.1" id="Layer_1" xmlns="http://www.w3.org/2000/svg" xmlns:xlink="http://www.w3.org/1999/xlink" x="0px" y="0px"
	 width="100%" viewBox="0 0 978 671" enable-background="new 0 0 978 671" xml:space="preserve">
<path fill="#F5B3B7" opacity="1.000000" stroke="none" 
	d="
M402.000000,672.000000 
	C365.312439,672.000000 328.624878,672.000000 291.259338,671.727661 
	C268.451538,660.492798 245.474686,658.172119 221.777069,665.217590 
	C216.327576,666.837708 211.249176,669.706055 206.000000,672.000000 
	C193.645767,672.000000 181.291550,672.000000 168.462692,671.640381 
	C143.600311,621.935791 79.319466,604.465027 33.193462,634.435608 
	C19.762867,643.162170 9.395100,654.571960 1.000000,668.000000 
	C1.000000,541.979126 1.000000,415.958221 1.297403,289.676025 
	C5.373990,302.829895 12.611524,314.150879 21.657978,324.691040 
	C45.522812,352.496185 69.000824,380.633301 92.636665,408.635040 
	C100.337585,417.758423 108.050293,426.871796 115.850258,436.099396 
	C117.624298,434.881470 119.011307,433.992554 120.331604,433.013672 
	C159.536072,403.945435 198.366165,374.354523 238.045074,345.949280 
	C271.957214,321.672394 277.898193,273.678894 254.496078,242.287796 
	C231.769302,211.802643 185.708725,204.389999 155.672180,227.873383 
	C149.436462,232.748642 143.981262,238.622192 137.823578,244.354752 
	C137.110580,242.987701 136.230789,241.448349 135.484940,239.846619 
	C131.124603,230.482803 124.966232,222.401443 117.086105,215.844559 
	C80.917938,185.749832 26.984413,197.765488 6.981299,240.300430 
	C4.733258,245.080704 2.981764,250.094498 1.000003,255.000000 
	C1.000000,185.312439 1.000000,115.624878 1.468657,45.468727 
	C50.403690,45.000126 98.872215,45.243668 147.334808,44.815231 
	C158.353333,44.717819 169.531067,43.115978 180.319107,40.758560 
	C199.389206,36.591328 213.463287,19.781879 215.000000,1.000000 
	C254.687561,1.000000 294.375122,1.000000 334.667847,1.307369 
	C346.544067,9.220191 357.814636,16.826361 369.086639,24.430403 
	C370.895752,25.650803 372.669617,27.149542 374.594482,24.535322 
	C380.379883,16.678110 386.195923,8.843456 392.000000,1.000000 
	C465.020905,1.000000 538.041809,1.000000 611.527771,1.349753 
	C611.334412,2.655105 610.680298,3.613660 610.017029,4.565894 
	C587.605408,36.743931 583.671997,71.240265 601.210815,106.152954 
	C626.324402,156.144150 653.289856,205.205109 679.465454,254.662781 
	C685.370911,265.820923 691.280151,276.977112 697.406860,288.548248 
	C699.867798,287.535736 702.013306,286.721252 704.103455,285.783234 
	C763.363647,259.188477 822.595276,232.529831 881.884583,205.999939 
	C907.471375,194.550720 925.849243,176.373810 935.228271,149.689301 
	C948.155212,112.910172 941.908752,79.262741 915.793579,50.691998 
	C881.155273,12.796659 823.083496,10.604939 784.145203,44.325890 
	C783.081909,45.246704 781.860046,45.984482 781.452820,46.276466 
	C778.146362,37.010006 775.381470,27.766706 771.539246,18.995302 
	C768.769165,12.671416 764.564697,6.975840 761.000000,1.000009 
	C833.639099,1.000000 906.278198,1.000000 978.958618,1.000000 
	C978.958618,224.554230 978.958618,448.108490 978.958618,672.000000 
	C891.312744,672.000000 803.625000,672.000000 715.624939,671.706665 
	C720.865967,665.657532 726.387268,659.870483 731.977844,654.151001 
	C770.156494,615.091797 775.287415,558.275330 744.703613,513.032654 
	C720.349915,477.006226 671.905640,459.106812 630.159424,470.898773 
	C600.653687,479.233215 578.381836,496.884521 563.360779,523.639221 
	C562.255615,525.607605 561.196716,527.601929 559.920532,529.943481 
	C555.580933,524.230164 551.941223,518.863159 547.733032,513.986816 
	C506.792664,466.546326 434.903442,464.319977 391.090210,509.046265 
	C355.949188,544.919617 349.760132,601.537537 377.286407,643.465759 
	C384.131165,653.891785 393.689117,662.536499 402.000000,672.000000 
z"/>
<path fill="#AA2146" opacity="1.000000" stroke="none" 
	d="
M402.468658,672.000000 
	C393.689117,662.536499 384.131165,653.891785 377.286407,643.465759 
	C349.760132,601.537537 355.949188,544.919617 391.090210,509.046265 
	C434.903442,464.319977 506.792664,466.546326 547.733032,513.986816 
	C551.941223,518.863159 555.580933,524.230164 559.920532,529.943481 
	C561.196716,527.601929 562.255615,525.607605 563.360779,523.639221 
	C578.381836,496.884521 600.653687,479.233215 630.159424,470.898773 
	C671.905640,459.106812 720.349915,477.006226 744.703613,513.032654 
	C775.287415,558.275330 770.156494,615.091797 731.977844,654.151001 
	C726.387268,659.870483 720.865967,665.657532 715.156250,671.706665 
	C610.979126,672.000000 506.958221,672.000000 402.468658,672.000000 
z"/>
<path fill="#AA2146" opacity="1.000000" stroke="none" 
	d="
M760.531311,1.000009 
	C764.564697,6.975840 768.769165,12.671416 771.539246,18.995302 
	C775.381470,27.766706 778.146362,37.010006 781.452820,46.276466 
	C781.860046,45.984482 783.081909,45.246704 784.145203,44.325890 
	C823.083496,10.604939 881.155273,12.796659 915.793579,50.691998 
	C941.908752,79.262741 948.155212,112.910172 935.228271,149.689301 
	C925.849243,176.373810 907.471375,194.550720 881.884583,205.999939 
	C822.595276,232.529831 763.363647,259.188477 704.103455,285.783234 
	C702.013306,286.721252 699.867798,287.535736 697.406860,288.548248 
	C691.280151,276.977112 685.370911,265.820923 679.465454,254.662781 
	C653.289856,205.205109 626.324402,156.144150 601.210815,106.152954 
	C583.671997,71.240265 587.605408,36.743931 610.017029,4.565894 
	C610.680298,3.613660 611.334412,2.655105 611.996460,1.349753 
	C661.354248,1.000000 710.708435,1.000000 760.531311,1.000009 
z"/>
<path fill="#AA2246" opacity="1.000000" stroke="none" 
	d="
M1.000003,255.468658 
	C2.981764,250.094498 4.733258,245.080704 6.981299,240.300430 
	C26.984413,197.765488 80.917938,185.749832 117.086105,215.844559 
	C124.966232,222.401443 131.124603,230.482803 135.484940,239.846619 
	C136.230789,241.448349 137.110580,242.987701 137.823578,244.354752 
	C143.981262,238.622192 149.436462,232.748642 155.672180,227.873383 
	C185.708725,204.389999 231.769302,211.802643 254.496078,242.287796 
	C277.898193,273.678894 271.957214,321.672394 238.045074,345.949280 
	C198.366165,374.354523 159.536072,403.945435 120.331604,433.013672 
	C119.011307,433.992554 117.624298,434.881470 115.850258,436.099396 
	C108.050293,426.871796 100.337585,417.758423 92.636665,408.635040 
	C69.000824,380.633301 45.522812,352.496185 21.657978,324.691040 
	C12.611524,314.150879 5.373990,302.829895 1.297403,289.207397 
	C1.000000,277.979095 1.000000,266.958221 1.000003,255.468658 
z"/>
<path fill="#AB2247" opacity="1.000000" stroke="none" 
	d="
M1.000000,668.500000 
	C9.395100,654.571960 19.762867,643.162170 33.193462,634.435608 
	C79.319466,604.465027 143.600311,621.935791 167.994034,671.640381 
	C112.333336,672.000000 56.666668,672.000000 1.000000,671.995605 
	C1.000000,670.994141 1.000000,669.997070 1.000000,668.500000 
z"/>
<path fill="#EFACB0" opacity="1.000000" stroke="none" 
	d="
M214.536819,1.000000 
	C213.463287,19.781879 199.389206,36.591328 180.319107,40.758560 
	C169.531067,43.115978 158.353333,44.717819 147.334808,44.815231 
	C98.872215,45.243668 50.403690,45.000126 1.468657,45.000069 
	C1.000000,41.307091 1.000000,37.614182 1.468657,33.460587 
	C52.670288,32.666855 103.402985,32.266029 154.136475,32.060631 
	C163.746475,32.021721 173.085709,30.973724 181.800323,26.853903 
	C192.783295,21.661711 200.127548,13.414514 202.000000,1.000000 
	C206.024551,1.000000 210.049088,1.000000 214.536819,1.000000 
z"/>
<path fill="#E199A0" opacity="1.000000" stroke="none" 
	d="
M1.000000,13.000000 
	C1.000000,9.009329 1.000000,5.018659 1.000000,1.000000 
	C59.354225,1.000000 117.708450,1.000000 176.474655,1.341582 
	C173.784622,7.631032 168.008057,9.835093 162.150650,10.772241 
	C153.829895,12.103511 145.331848,12.869954 136.905334,12.906609 
	C91.604279,13.103660 46.301914,12.999907 1.000000,13.000000 
z"/>
<path fill="#ECA7AC" opacity="1.000000" stroke="none" 
	d="
M201.555832,1.000000 
	C200.127548,13.414514 192.783295,21.661711 181.800323,26.853903 
	C173.085709,30.973724 163.746475,32.021721 154.136475,32.060631 
	C103.402985,32.266029 52.670288,32.666855 1.468657,32.999947 
	C1.000000,30.958334 1.000000,28.916666 1.468657,26.437469 
	C52.303272,25.666922 102.671387,25.497086 153.032928,24.830011 
	C160.845428,24.726530 169.035278,23.445478 176.319504,20.740307 
	C185.138077,17.465321 192.308365,11.331904 194.000000,1.000000 
	C196.370560,1.000000 198.741104,1.000000 201.555832,1.000000 
z"/>
<path fill="#E59EA5" opacity="1.000000" stroke="none" 
	d="
M1.000000,13.437500 
	C46.301914,12.999907 91.604279,13.103660 136.905334,12.906609 
	C145.331848,12.869954 153.829895,12.103511 162.150650,10.772241 
	C168.008057,9.835093 173.784622,7.631032 176.943314,1.341582 
	C180.030594,1.000000 183.061188,1.000000 186.491577,1.350587 
	C182.711334,12.370009 173.413223,16.200552 163.404770,17.782475 
	C153.470596,19.352655 143.286606,19.858868 133.207718,19.907799 
	C89.139366,20.121742 45.069386,19.999950 1.000000,20.000000 
	C1.000000,17.958334 1.000000,15.916667 1.000000,13.437500 
z"/>
<path fill="#E8A3A8" opacity="1.000000" stroke="none" 
	d="
M1.000000,20.428463 
	C45.069386,19.999950 89.139366,20.121742 133.207718,19.907799 
	C143.286606,19.858868 153.470596,19.352655 163.404770,17.782475 
	C173.413223,16.200552 182.711334,12.370009 186.945679,1.350587 
	C189.041672,1.000000 191.083328,1.000000 193.562500,1.000000 
	C192.308365,11.331904 185.138077,17.465321 176.319504,20.740307 
	C169.035278,23.445478 160.845428,24.726530 153.032928,24.830011 
	C102.671387,25.497086 52.303272,25.666922 1.468657,25.999969 
	C1.000000,24.285643 1.000000,22.571283 1.000000,20.428463 
z"/>
<path fill="#AC2449" opacity="1.000000" stroke="none" 
	d="
M391.531342,1.000000 
	C386.195923,8.843456 380.379883,16.678110 374.594482,24.535322 
	C372.669617,27.149542 370.895752,25.650803 369.086639,24.430403 
	C357.814636,16.826361 346.544067,9.220191 335.136505,1.307369 
	C353.687561,1.000000 372.375122,1.000000 391.531342,1.000000 
z"/>
<path fill="#AC264A" opacity="1.000000" stroke="none" 
	d="
M206.468658,672.000000 
	C211.249176,669.706055 216.327576,666.837708 221.777069,665.217590 
	C245.474686,658.172119 268.451538,660.492798 290.790680,671.727661 
	C262.979095,672.000000 234.958206,672.000000 206.468658,672.000000 
z"/>
</svg>